<?xml version="1.0" standalone="no"?>
<!DOCTYPE svg PUBLIC "-//W3C//DTD SVG 20010904//EN"
 "http://www.w3.org/TR/2001/REC-SVG-20010904/DTD/svg10.dtd">
<svg version="1.0" xmlns="http://www.w3.org/2000/svg"
 width="512.000000pt" height="512.000000pt" viewBox="0 0 512.000000 512.000000"
 preserveAspectRatio="xMidYMid meet">
<metadata>
Created by potrace 1.14, written by Peter Selinger 2001-2017
</metadata>
<g transform="translate(0.000000,512.000000) scale(0.100000,-0.100000)"
fill="#000000" stroke="none">
<path d="M680 3752 c0 -110 4 -162 12 -170 9 -9 82 -12 265 -12 l253 0 0 -459
0 -460 -27 -19 c-25 -17 -315 -182 -418 -238 -22 -12 -44 -28 -49 -36 -6 -11
11 -51 60 -141 38 -70 74 -127 79 -127 6 0 84 43 175 95 90 52 168 91 172 87
5 -5 7 -168 6 -363 l-3 -354 -357 -3 -358 -2 0 -168 0 -167 930 0 930 0 0 167
0 168 -317 2 -318 3 -3 495 c-1 272 0 504 2 515 3 11 29 33 58 49 157 85 445
251 457 262 11 10 3 32 -49 131 -34 65 -68 124 -75 132 -11 12 -36 1 -157 -69
-79 -46 -160 -94 -181 -107 -21 -13 -42 -21 -47 -18 -6 4 -10 188 -10 486 l0
479 -515 0 -515 0 0 -158z"/>
<path d="M3715 3783 c-329 -317 -376 -366 -373 -385 3 -19 11 -20 158 -19
l155 2 130 88 c72 49 207 140 300 204 164 110 170 116 170 148 l0 34 -230 2
-230 3 -80 -77z"/>
<path d="M3560 3213 c-186 -18 -245 -28 -319 -54 -105 -36 -221 -101 -274
-154 -118 -118 -169 -285 -142 -467 21 -146 86 -254 199 -332 62 -42 207 -108
276 -124 25 -6 92 -22 150 -36 58 -14 150 -35 205 -46 238 -49 342 -98 382
-180 56 -113 1 -228 -132 -280 -56 -22 -74 -24 -265 -24 -191 0 -209 2 -263
23 -32 13 -75 37 -95 55 -42 36 -92 112 -92 138 0 29 -19 30 -131 13 -160 -25
-293 -44 -303 -45 -16 0 3 -70 40 -145 40 -83 112 -169 181 -216 152 -105 318
-147 622 -156 352 -10 600 64 767 232 83 83 123 168 145 303 11 73 11 93 -5
174 -10 51 -29 117 -44 148 -52 108 -182 212 -342 275 -55 22 -295 84 -440
115 -280 60 -354 95 -394 192 -20 46 -20 76 -2 119 25 60 91 109 173 128 70
17 286 17 354 0 96 -23 188 -105 204 -180 4 -17 12 -32 18 -35 7 -2 53 0 102
6 50 5 144 15 210 21 66 6 121 12 122 13 7 6 -40 133 -66 180 -111 194 -304
299 -607 331 -136 14 -162 15 -234 8z"/>
</g>
</svg>
