<?xml version="1.0" standalone="no"?>
<!DOCTYPE svg PUBLIC "-//W3C//DTD SVG 20010904//EN"
 "http://www.w3.org/TR/2001/REC-SVG-20010904/DTD/svg10.dtd">
<svg version="1.0" xmlns="http://www.w3.org/2000/svg"
 width="260.000000pt" height="260.000000pt" viewBox="0 0 260.000000 260.000000"
 preserveAspectRatio="xMidYMid meet">
<metadata>
Created by potrace 1.14, written by Peter Selinger 2001-2017
</metadata>
<g transform="translate(0.000000,260.000000) scale(0.100000,-0.100000)"
fill="#000000" stroke="none">
<path d="M200 1905 l0 -105 155 0 155 0 0 -279 0 -279 -145 -82 c-80 -45 -147
-86 -150 -90 -7 -11 74 -160 87 -160 5 0 40 17 76 39 37 21 82 46 100 55 l32
17 0 -211 0 -210 -212 -2 -213 -3 -3 -102 -3 -103 561 0 560 0 0 105 0 105
-190 0 -190 0 2 302 3 303 152 85 c84 47 153 91 153 99 0 19 -80 162 -88 157
-4 -2 -50 -29 -104 -60 -53 -31 -101 -56 -107 -56 -7 0 -12 89 -13 288 l-3
287 -307 3 -308 2 0 -105z"/>
<path d="M1927 1857 c-76 -73 -137 -140 -137 -149 0 -16 11 -18 93 -18 l92 0
185 128 c135 93 186 133 188 150 3 22 3 22 -140 22 l-143 -1 -138 -132z"/>
<path d="M1835 1584 c-251 -39 -387 -197 -353 -409 26 -170 138 -243 478 -315
196 -41 260 -80 260 -159 0 -48 -30 -87 -84 -112 -32 -15 -66 -19 -156 -19
-63 0 -132 5 -153 11 -49 13 -103 61 -117 104 -6 19 -15 35 -18 35 -19 0 -255
-40 -258 -43 -9 -9 29 -96 61 -140 68 -92 159 -137 329 -164 241 -36 484 21
591 139 91 101 111 249 51 372 -54 111 -159 166 -441 231 -88 20 -173 43 -190
50 -100 42 -104 161 -7 202 20 8 71 18 113 20 136 10 224 -27 249 -103 12 -36
13 -36 59 -31 25 4 84 9 129 13 55 4 85 11 89 20 8 21 -41 117 -82 163 -44 48
-118 92 -195 116 -55 17 -289 29 -355 19z"/>
</g>
</svg>
